<svg xmlns="http://www.w3.org/2000/svg" viewBox="0 0 170.46 170.47"><defs><style>.cls-1{fill:#fff;fill-rule:evenodd;}</style></defs><title>katalog_metapodataka</title><g id="Layer_2" data-name="Layer 2"><g id="Layer_1-2" data-name="Layer 1"><path class="cls-1" d="M95.18,91.06c2.07,2.58,4.66,4.64,6.84,7.11,3.35-2.82,6.46,2,8.57,4.15,4.76,4.76,9.09,9,13.94,13.8.81.82,2.52,2.3,2.54,2.95,0,1.12-3.26,3.66-3.88,4.29s-1.39,1.52-2,2.14-1.28,1.6-2.41,1.61c-1.43-.06-2.34-1.4-3.22-2.28-4.48-4.48-8.8-8.93-13.53-13.67-2-2-6.89-4.92-4.29-8.57-2.25-2.45-4.73-4.66-7-7.1-4.43,3.23-9.09,5.84-15.81,6.29a28.69,28.69,0,0,1-21.84-7.37,28.27,28.27,0,0,1-9.65-19.56A28.69,28.69,0,0,1,51,53.14c5.25-5.59,11-8.55,20.1-9.65,6.38-.76,12.61,1.76,16.89,4.43,8.14,5.07,15.37,14.8,13.66,28.4A28.76,28.76,0,0,1,95.18,91.06ZM58.06,54.88a21.58,21.58,0,0,0-7.23,10.05A23.12,23.12,0,0,0,57.53,90c6.25,5.37,16.93,8,26.13,3,6.54-3.58,12.83-10.88,11.92-22.51A22.9,22.9,0,0,0,70.39,49.79,21.35,21.35,0,0,0,58.06,54.88Z"/><path class="cls-1" d="M81.24,0h8c25,2.33,43.52,11.43,57.26,26,13.14,13.89,24,33.52,24,59.26s-10.84,45.38-24,59.27c-13.74,14.53-32.32,23.64-57.26,26h-8C33.49,164.81,5.73,137.25,0,89.23v-8C1.13,57.7,12.34,37.93,25.3,25,39,11.24,57.47,1.69,81.24,0ZM29.3,35.62A73,73,0,0,0,11,91.23c1.79,22,11,38,24.3,49.94a75,75,0,0,0,55.6,18.31c22.25-1.74,37.92-11,49.94-24.31,11.47-12.69,20.8-30.94,19-55.6a74.7,74.7,0,0,0-24.3-49.94C123.32,18.48,103.22,9.14,79.57,11,56.86,12.76,40.46,23,29.3,35.62Z"/></g></g></svg>