<svg xmlns="http://www.w3.org/2000/svg" viewBox="0 0 242.76 172.44"><defs><style>.cls-1,.cls-2{fill:#fff;}.cls-2{fill-rule:evenodd;}</style></defs><title>rgz_beli_logo</title><g id="Layer_2" data-name="Layer 2"><g id="Layer_1-2" data-name="Layer 1"><path class="cls-1" d="M0,150.92a8.25,8.25,0,0,1,2.45-.35,4.19,4.19,0,0,1,3.32,1.3,5.78,5.78,0,0,1,1.08,3.72,6.54,6.54,0,0,1-.9,3.66,4.1,4.1,0,0,1-3.52,2,5.87,5.87,0,0,1-.75,0v7.33H0Zm1.68,8.59a4.21,4.21,0,0,0,.69.06c1.65,0,2.78-1.3,2.78-3.85,0-1.83-.62-3.48-2.52-3.48a2.89,2.89,0,0,0-.95.14Z"/><path class="cls-1" d="M15.57,160H11.83v6.72h4.25v1.78H10.13V150.65h5.68v1.78h-4v5.89h3.74Z"/><path class="cls-1" d="M26.75,150.65v17.89h-1.7V152.43H21v16.11h-1.7V150.65Z"/><path class="cls-1" d="M31.42,150.65,33.19,158c.26,1.12.49,2.13.68,3.11h.07c.18-.88.35-2,.55-3.16l1.33-7.27h1.72l-1.79,8a46.63,46.63,0,0,1-2.07,7.59c-.69,1.54-1.68,2.58-2.81,2.58a2,2,0,0,1-.8-.13l.07-1.65a2.09,2.09,0,0,0,.46,0c1.22,0,2-2.07,2.35-3.34a2.18,2.18,0,0,0,0-1l-3.34-12.07Z"/><path class="cls-1" d="M46.59,150.65v1.78H42v5.36a5.54,5.54,0,0,1,1.13-.11,4.08,4.08,0,0,1,3.18,1.41,5.76,5.76,0,0,1,1.26,3.9,6.42,6.42,0,0,1-1.08,3.87,4.59,4.59,0,0,1-4,1.78,10.49,10.49,0,0,1-2.21-.18V150.65ZM42,166.89a3.07,3.07,0,0,0,.86.11,2.62,2.62,0,0,0,2.28-1.25,5,5,0,0,0,.66-2.63,4.48,4.48,0,0,0-.77-2.65,2.65,2.65,0,0,0-2.19-1.09,5.16,5.16,0,0,0-.84.08Z"/><path class="cls-1" d="M57.73,150.65v17.89H56V152.43H52.89v6.1c0,4.65-.13,8.26-1.81,9.66a1.94,1.94,0,0,1-1.35.56L49.38,167a1.38,1.38,0,0,0,.79-.45c.91-.95,1.15-3.34,1.15-7.75v-8.17Z"/><path class="cls-1" d="M63.28,150.65v6.4c0,3.1-.06,5.38-.2,8.2h.05c.51-1.94,1.3-4.3,1.92-6.24l2.68-8.36h1.59v17.89H67.79v-6.19c0-3.82,0-6,.18-8.43h0c-.54,2.22-1.22,4.19-1.8,6l-2.78,8.63H61.73V150.65Z"/><path class="cls-1" d="M74.71,150.65v6.1c0,1.7.47,3.08,2,3.08a3.08,3.08,0,0,0,1.72-.55v-8.63h1.68v18.07H78.47v-7.8h-.06a4.55,4.55,0,0,1-2.24.64c-1.94,0-3.14-1.41-3.14-4.41v-6.5Z"/><path class="cls-1" d="M85.81,150.65v8.12h.31l3.17-8.12h1.85L87.5,159c1.83.48,2.43,2.36,2.8,4.54a45.86,45.86,0,0,0,1,5H89.57c-.35-1.17-.59-2.95-.86-4.46-.38-2.18-.86-3.8-2.63-3.8h-.27v8.26H84.16V150.65Z"/><path class="cls-1" d="M95.65,150.65v6.4c0,3.1-.06,5.38-.19,8.2h0c.51-1.94,1.3-4.3,1.92-6.24l2.68-8.36h1.59v17.89h-1.53v-6.19c0-3.82,0-6,.18-8.43h0c-.53,2.22-1.22,4.19-1.79,6l-2.79,8.63H94.11V150.65Z"/><path class="cls-1" d="M112.5,150.65v3h-4v14.86h-2.89V150.65Z"/><path class="cls-1" d="M120.33,160.68H117v4.83h3.82v3h-6.72V150.65h6.48v3H117v4.11h3.38Z"/><path class="cls-1" d="M136.58,159.41c0,5.89-2.94,9.42-7.32,9.42s-7-4-7-9.13c0-5.36,2.88-9.37,7.26-9.37C134.08,150.33,136.58,154.45,136.58,159.41Zm-10.77.21c0,3.53,1.37,6,3.63,6S133,163,133,159.54c0-3.24-1.26-6-3.58-6S125.81,156.14,125.81,159.62Z"/><path class="cls-1" d="M147.73,150.65v14.91l1.17.06-.13,6.82h-2.19l-.14-3.9H140l-.11,3.9h-2.19l-.11-6.82,1-.06a25.52,25.52,0,0,0,1-4.16,44.5,44.5,0,0,0,.42-6.24v-4.51Zm-5,5.1a47.1,47.1,0,0,1-.38,6,24.54,24.54,0,0,1-.73,3.74h3.23V153.68h-2.12Z"/><path class="cls-1" d="M156.79,160.68h-3.38v4.83h3.83v3h-6.73V150.65H157v3h-3.58v4.11h3.38Z"/><path class="cls-1" d="M160.84,153.86h-2.63v-3.21h8.18v3.21h-2.65v14.68h-2.9Z"/><path class="cls-1" d="M174.59,168.27a4.93,4.93,0,0,1-2.23.43c-3.82,0-5.64-3.75-5.64-8.84,0-6.74,3.12-9.37,6-9.37a3.44,3.44,0,0,1,2,.48l-.49,2.92a2.48,2.48,0,0,0-1.35-.35c-1.63,0-3.12,1.7-3.12,6.13s1.35,6,3.12,6a4.47,4.47,0,0,0,1.4-.27Z"/><path class="cls-1" d="M179,150.65v7.78h.22l2.41-7.78h3.18l-3.4,8.25c1.52.72,2,2.37,2.45,4.54.31,1.75.58,3.45,1,5.1H182c-.37-1.28-.57-2.76-.82-4.14-.37-2.1-.77-3.45-1.94-3.45H179v7.59h-2.83V150.65Z"/><path class="cls-1" d="M188.79,150.65v4c0,3.29-.18,6.36-.29,8.22h.05c.42-1.54,1.17-3.9,1.61-5.25l2.19-6.93H195v17.89h-2.54v-4c0-3.58.11-6.23.2-8h0c-.35,1.59-1,3.74-1.5,5.26l-2.19,6.82h-2.68V150.65Z"/><path class="cls-1" d="M196.93,151.58a4.48,4.48,0,0,1,3-1.14c2.36,0,3.64,1.83,3.64,4.3A4.45,4.45,0,0,1,201,159V159c1.91.37,3.08,2.17,3.08,4.59,0,3.18-1.86,5.12-4.49,5.12a5,5,0,0,1-2.9-.88l.42-1.7a3.86,3.86,0,0,0,2.37.83c1.83,0,2.85-1.41,2.85-3.37,0-2.39-1.48-3.64-3.38-3.64h-.47v-1.62h.34a3.27,3.27,0,0,0,3.07-3.34c0-1.73-.89-2.81-2.32-2.81a3.6,3.6,0,0,0-2.19.93Z"/><path class="cls-1" d="M207.83,163.18l-1,5.36H205.2l3.4-17.89h1.88l3.32,17.89h-1.68l-1-5.36Zm3.07-1.65-.77-4.54c-.22-1.27-.42-2.76-.6-4.08h-.07c-.17,1.35-.39,2.89-.62,4.08l-.77,4.54Z"/><path class="cls-1" d="M215.68,150.92a8.6,8.6,0,0,1,2.47-.35,4.19,4.19,0,0,1,3.3,1.25,4.52,4.52,0,0,1,1,3.05,4.13,4.13,0,0,1-2.3,3.95v.08c1.73.56,2.77,2.23,2.77,4.57a5.73,5.73,0,0,1-1.07,3.55,4.6,4.6,0,0,1-3.93,1.62,10.49,10.49,0,0,1-2.21-.18Zm1.68,7.32h.77c1.4,0,2.59-1.27,2.59-3.16,0-1.64-.64-2.92-2.46-2.92a2.52,2.52,0,0,0-.9.14Zm0,8.68a3.48,3.48,0,0,0,.86.1c1.75,0,2.9-1.24,2.9-3.55,0-2.47-1.42-3.64-3-3.66h-.75Z"/><path class="cls-1" d="M232.68,159.46c0,6.71-1.9,9.29-4.31,9.29s-4.14-3.16-4.14-9.18,1.8-9.13,4.38-9.13S232.68,153.76,232.68,159.46Zm-6.68.13c0,3.69.6,7.35,2.5,7.35s2.41-3.9,2.41-7.4c0-3.34-.51-7.3-2.43-7.3S226,156,226,159.59Z"/><path class="cls-1" d="M241.77,150.65v16.14l1,0-.08,5.41h-1.35l-.09-3.68h-6.59l-.09,3.68h-1.35l-.09-5.41,1,0a30.8,30.8,0,0,0,1.22-4.83,48.23,48.23,0,0,0,.44-7.27v-4Zm-4.42,4.46a52.54,52.54,0,0,1-.42,7.14,27.21,27.21,0,0,1-1.06,4.51h4.22V152.43h-2.74Z"/><path class="cls-1" d="M114.42.35a79.4,79.4,0,0,0-13.83,10.41,86.07,86.07,0,0,0-17.18.53A68.51,68.51,0,0,1,114.42.35Z"/><path class="cls-1" d="M170,20.15a84.81,84.81,0,0,0-22.94-3,107.61,107.61,0,0,0-13.74.89,120.18,120.18,0,0,0-11.78-3.79A112,112,0,0,0,103.22,11,73.94,73.94,0,0,1,119,0c.76,0,1.5,0,2.26,0A69.08,69.08,0,0,1,170,20.15Z"/><path class="cls-1" d="M97.4,13.09A108.14,108.14,0,0,0,79.47,37.45,103.73,103.73,0,0,0,52.21,63.77c1.8-19.06,11.52-37.84,27-49.56A85.84,85.84,0,0,1,97.4,13.09Z"/><path class="cls-1" d="M129.22,18.67a129.6,129.6,0,0,0-45.88,17,102.17,102.17,0,0,1,17.94-22.89A107.8,107.8,0,0,1,121,16.16C123.74,16.89,126.49,17.72,129.22,18.67Z"/><path class="cls-1" d="M112.5,70.5a7.68,7.68,0,0,0,0,.83c-4.55-.15-9.08-.38-13.62-.54l-22.47-.63V69l22.47-.65c4.63-.16,9.23-.4,13.86-.54A12.82,12.82,0,0,0,112.5,70.5Z"/><path class="cls-1" d="M166.3,69v1.15l-22.46.66c-4.69.15-9.41.4-14.1.53a8,8,0,0,0,0-.85,13.35,13.35,0,0,0-.27-2.72c4.79.15,9.58.42,14.34.54Z"/><path class="cls-1" d="M123.13,60.86H119.6c.17-4.59.4-9.18.55-13.75l.64-22.46H122l.64,22.46C122.74,51.68,123,56.27,123.13,60.86Z"/><path class="cls-1" d="M189.8,61.26a88.51,88.51,0,0,0-9.66-12.4A121,121,0,0,0,144.71,23c-2.45-1.21-5-2.36-7.56-3.42,3.34-.31,6.65-.47,9.88-.47A79.21,79.21,0,0,1,172.69,23a66.17,66.17,0,0,1,4.19,5.14l.29.39A68.62,68.62,0,0,1,189.8,61.26Z"/><path class="cls-1" d="M68.28,68.77a97.37,97.37,0,0,0-2.34,23.94,71.35,71.35,0,0,0,4.14,22.54A68.55,68.55,0,0,1,52.33,71.86c0-1-.06-1.94-.06-2.87V68.4c5.64-9.82,14.48-19.07,25.72-27-.8,1.62-1.58,3.27-2.32,4.93A117,117,0,0,0,68.28,68.77Z"/><path class="cls-1" d="M132.39,118.79l-4.32-19.9.39-1.27-2.47-18,1.49-.57s.17-12-.44-13.66c-1.11-3.88-10-3.75-11,.2-1,3.5-.54,13.5-.54,13.5l2.12.53-5.81,21,.19.62-6,17.13-.33,3.55.47,0L118.78,88l.79-.59.71,15.84.47.42.26,20,.45.41,0,4.42.61,0,.26-4.36.29-.32.55-20.2.4-.55,1-13.29,7.12,31.25.29-.15-.1-1.55Zm-10.93-47a2.52,2.52,0,1,1,2.67-2.51A2.59,2.59,0,0,1,121.46,71.83Z"/><path class="cls-1" d="M137.34,139.06c-5.52,1-12.06.74-17.56.06l0-1c5,0,14.31-.33,16.83-.94C136.63,137.22,137.28,139,137.34,139.06Z"/><path class="cls-1" d="M174.15,115.44a76,76,0,0,1-11.1,12.6l-.26-2.2c2.78-2,7.21-7,10.6-11Z"/><path class="cls-1" d="M141.88,137.56l-3.59,1.38-.11-.29.69-.26-4.05-10.56-.69.26-.11-.28,2.9-1.12,4.16,10.85.69-.26Z"/><path class="cls-1" d="M149.2,133.29a1.57,1.57,0,0,1-.43,1.63,5.26,5.26,0,0,1-2.09,1.51,5.39,5.39,0,0,1-2.52.48c-.79-.06-1.29-.32-1.49-.8l-1.31-3c-.31-.72.1-1.52,1.24-2.4-1.41.24-2.27,0-2.59-.74l-1-2.37a1.56,1.56,0,0,1,.44-1.62,5.18,5.18,0,0,1,2.08-1.5A5.25,5.25,0,0,1,144,124a1.58,1.58,0,0,1,1.48.8l1,2.36c.32.74-.09,1.54-1.22,2.39,1.41-.22,2.26,0,2.57.75Zm-4.52-4.49L143,125a.63.63,0,0,0-.53-.34,1.57,1.57,0,0,0-.86.13,1.6,1.6,0,0,0-.68.53.6.6,0,0,0-.11.61l1.66,3.85a.6.6,0,0,0,.52.34,1.57,1.57,0,0,0,.86-.13,1.6,1.6,0,0,0,.68-.53A.61.61,0,0,0,144.68,128.8Zm2.67,6.18-1.95-4.52a.62.62,0,0,0-.53-.34,1.55,1.55,0,0,0-.85.13,1.58,1.58,0,0,0-.69.54.62.62,0,0,0-.11.61l1.95,4.52a.63.63,0,0,0,.52.34,1.68,1.68,0,0,0,.86-.14,1.48,1.48,0,0,0,.68-.53A.6.6,0,0,0,147.35,135Z"/><path class="cls-1" d="M156.93,130a1.53,1.53,0,0,1-.36,1.62,5.14,5.14,0,0,1-2,1.45,5.08,5.08,0,0,1-2.47.49,1.51,1.51,0,0,1-1.43-.85l-.82-1.9,2.17-.94,1.14,2.65c.2.45.63.53,1.28.25s.88-.65.69-1.1l-2-4.52a.62.62,0,0,0-.52-.34,1.58,1.58,0,0,0-.86.14l-1.66.71-.13-.3,1.66-.72a1.56,1.56,0,0,0,.69-.53.62.62,0,0,0,.11-.61l-1.66-3.85c-.2-.45-.62-.54-1.28-.25s-.88.64-.69,1.1L150,125.1l-2.18.94-.82-1.9a1.55,1.55,0,0,1,.37-1.63,5.16,5.16,0,0,1,2-1.46,5.07,5.07,0,0,1,2.47-.48,1.54,1.54,0,0,1,1.42.85l1,2.36c.32.74-.09,1.53-1.22,2.39,1.41-.22,2.27,0,2.57.75Z"/><path class="cls-1" d="M160.21,117,162,129l-2.12,1-1.76-12-2.36,1.1,1.39,3-2.1,1-1.51-3.23,6.57-3.08Z"/><path class="cls-1" d="M184,105.74a3.22,3.22,0,0,1-1.75.48,4,4,0,0,1-1.61-.33,74.25,74.25,0,0,1-4.58,7l-.78-.58a73.53,73.53,0,0,0,4.5-6.91,3.4,3.4,0,0,1-1.64-3.2l1,.15a2.63,2.63,0,0,0,1.66,2.5,2.82,2.82,0,0,0,2.72,0Z"/><path class="cls-2" d="M182.86,102.78a1.09,1.09,0,1,1-1.08-1.09A1.09,1.09,0,0,1,182.86,102.78Z"/><path class="cls-2" d="M190.12,80.1A1.08,1.08,0,1,1,189,79,1.08,1.08,0,0,1,190.12,80.1Z"/><path class="cls-1" d="M192.29,82.15a3.57,3.57,0,0,1-3.07,1.48h-.13c-.37,1.93-.84,3.88-1.38,5.78a70.72,70.72,0,0,1-4,10.68,3.49,3.49,0,0,1,1.8,3.09l-1-.07a2.71,2.71,0,0,0-1.68-2.38,2.87,2.87,0,0,0-2.59-.11l-.46-.85a3.79,3.79,0,0,1,3-.11,68.24,68.24,0,0,0,4-10.52c.53-1.85,1-3.74,1.35-5.63a3.53,3.53,0,0,1-2.59-2.13l.92-.31a2.74,2.74,0,0,0,2.39,1.59,2.79,2.79,0,0,0,2.62-1Z"/><path class="cls-1" d="M192.52,78.91l-.91.34a3.15,3.15,0,0,0-5-.6l-.8-.54A3.61,3.61,0,0,1,189,76.73a64,64,0,0,0,.35-8.4l1,0a64.43,64.43,0,0,1-.36,8.54A3.53,3.53,0,0,1,192.52,78.91Z"/><path class="cls-1" d="M83.05,122.1l-.27.92a2.65,2.65,0,0,0-2.7,1.32,2.85,2.85,0,0,0-.38,2.7l-.87.41a3.18,3.18,0,0,1-.26-1.8,4.09,4.09,0,0,1,.53-1.55,77.58,77.58,0,0,1-6.38-5.45l.68-.71a73.28,73.28,0,0,0,6.27,5.37A3.36,3.36,0,0,1,83.05,122.1Z"/><path class="cls-2" d="M81.91,126.67a1.08,1.08,0,1,1,1.21-.93A1.07,1.07,0,0,1,81.91,126.67Z"/><path class="cls-2" d="M103.46,136.82a1.08,1.08,0,1,1,.27-2.14,1.08,1.08,0,1,1-.27,2.14Z"/><path class="cls-1" d="M115.22,137.57l-.1,1a65.92,65.92,0,0,1-8.42-1.46,3.54,3.54,0,0,1-2.39,2.28l-.21-.94a3.15,3.15,0,0,0,1.25-4.86l.64-.73a3.66,3.66,0,0,1,1,3.3A63.94,63.94,0,0,0,115.22,137.57Z"/><path class="cls-1" d="M101.09,135.23a2.78,2.78,0,0,0,.67,2.73l-.62.75a3.58,3.58,0,0,1-1.08-3.24.89.89,0,0,0,0-.14c-1.87-.62-3.73-1.32-5.54-2.11a67.82,67.82,0,0,1-10.07-5.4,3.53,3.53,0,0,1-3.3,1.4l.2-1A2.69,2.69,0,0,0,84,126.91a2.86,2.86,0,0,0,.44-2.55l.91-.35a3.71,3.71,0,0,1-.29,3,67.21,67.21,0,0,0,9.93,5.31c1.76.77,3.57,1.46,5.4,2.07a3.52,3.52,0,0,1,2.45-2.28l.18.95A2.73,2.73,0,0,0,101.09,135.23Z"/></g></g></svg>