<svg xmlns="http://www.w3.org/2000/svg" viewBox="0 0 151.67 151.67"><defs><style>.cls-1{fill:#00787f;}.cls-2{fill:#fff;}</style></defs><title>sidebar_kartografski_pregled</title><g id="Layer_2" data-name="Layer 2"><g id="Layer_1-2" data-name="Layer 1"><circle class="cls-1" cx="75.83" cy="75.83" r="75.83" transform="translate(-23.25 34.79) rotate(-22.5)"/><path class="cls-2" d="M110.76,95.79a5.84,5.84,0,0,1-.82-.22,1.72,1.72,0,0,1-.58-.38c-.12-.12-.13-.33-.23-.48-.21-.32-.44-.63-.67-.95s-.44-.66-.67-1a6.36,6.36,0,0,1-.56-.83c-.12-.27-.26-.32-.51-.19-.19-.7-.77-.37-1.19-.49-.13-.72-.24-.82-1-.8-.21,0-.26-.11-.3-.26a.69.69,0,0,0-.68-.56.49.49,0,0,1-.31-.21,5.6,5.6,0,0,1-.81-3.28,1,1,0,0,0-.66-1.2c-.36-.16-.65-.36-.55-.84,0-.09-.06-.2-.08-.3-.07-.32-.12-.64-.19-1,0,0-.15-.11-.25-.2a1.21,1.21,0,0,1-.31-1.66,1.53,1.53,0,0,0,.2-.48c.15-.74.28-1.49.41-2.23,0-.32.09-.63.14-1a3.13,3.13,0,0,1,.14-.4c.45-.06.9-.16,1.35-.21s.69-.33.56-.76l1.37-.31c0-.29,0-.5,0-.71,0-.54,0-1.08.09-1.62a.76.76,0,0,1,.13-.4,3.37,3.37,0,0,0,1-2.08.44.44,0,0,0-.34-.52,8.13,8.13,0,0,0-1.07-.22A1.47,1.47,0,0,1,103,69c-.32-.88-.63-1.77-1-2.65-.21-.52-.16-.64.41-.66h.29a.91.91,0,0,0,.88-.69c.07-.3.12-.6.18-.9.39,0,.78.06,1.16.13a.89.89,0,0,1,.52.26c.31.41.69.28,1,.18a.68.68,0,0,0,.33-1.09,4.25,4.25,0,0,1-.31-.43,1.38,1.38,0,0,0-1.2-.63c-.31,0-.62,0-.92,0a.9.9,0,0,1-.5-.21c-.61-.55-1.19-1.14-1.8-1.69a.48.48,0,0,0-.42-.07,6.85,6.85,0,0,0-.84.36A3.59,3.59,0,0,0,99,62.31c-.5,1-1,1.88-1.58,2.82-.17.3-.33.58-.74.62a.74.74,0,0,1-.86-.42,1.9,1.9,0,0,0-.44-.54c-.26-.24-.64-.4-.77-.68s0-.7,0-1-.4-.62-.66-.52a1.17,1.17,0,0,1-.27,0c0-.09.05-.18.07-.28a1.51,1.51,0,0,0-.18-.09,5.19,5.19,0,0,0-2-.19.8.8,0,0,1-.52-.18.88.88,0,0,0-.86-.24c-.69.1-1.39.14-2.08.19-.26,0-.39-.11-.43-.36a12.45,12.45,0,0,1-.23-1.36,1,1,0,0,0-.69-.91,4.35,4.35,0,0,0-2.47-.28c-.3,0-.38-.07-.48-.3s-.31-.53-.45-.79a.84.84,0,0,1-.13-.45.85.85,0,0,1,.91-.76c.36,0,.73,0,1.1,0a2.3,2.3,0,0,0,1.41-.42c-.06-.2-.12-.37-.16-.56a.92.92,0,0,0-.58-.66,4.24,4.24,0,0,0-.93-.24,1.11,1.11,0,0,1-.78-.48c-.2-.29-.45-.54-.67-.81-.06-.08-.15-.17-.15-.26s.12-.15.2-.17l1.24-.4a7.09,7.09,0,0,0,.24-1,1.7,1.7,0,0,1,.94-1.4l.2-.1a7.64,7.64,0,0,0-.71-.84c-.39-.35-.83-.65-1.24-1-.06-.05-.15,0-.23-.05s-.29,0-.43-.08a12.79,12.79,0,0,0-2.24-.6,1,1,0,0,1-.93-.72c0-.06,0-.12,0-.18-.06-.31-.13-.63-.21-1-.19.09-.4.12-.48.24a.76.76,0,0,1-1.38,0c-.13-.29-.28-.31-.51-.2s-.28,0-.41-.12c-.34-.43-.69-.86-1.07-1.26s-.59-.88-1.15-1.06c-.09,0-.12-.28-.17-.44s0-.17,0-.24A1.33,1.33,0,0,0,73.59,42c-.32,0-.32-.21-.35-.38a.45.45,0,0,1,.17-.33c.29-.24.59-.46.85-.66l-.66-1.23c-.31.13-.37.09-.38-.28a1.32,1.32,0,0,1,.35-1,1,1,0,0,0,.1-1.21,1,1,0,0,1,0-.58c.1-.49.25-1,.36-1.44a.33.33,0,0,0-.08-.26,3.53,3.53,0,0,0-.49-.16c0,.28-.09.52-.13.76H71.91a1.07,1.07,0,0,0-.49-1c-.24-.14-.29-.28-.18-.52s.05-.31-.16-.42A2.28,2.28,0,0,1,70,32.09c-.08-.22-.14-.46-.22-.7-.23.13-.44.23-.64.36s-.26.11-.34-.07-.23-.63-.35-.95a1.28,1.28,0,0,0-.21-.38.8.8,0,0,0-.85-.18.66.66,0,0,1-.73-.23c-.16-.19-.35-.37-.52-.56a.17.17,0,0,1,0-.13.83.83,0,0,0-.28-.86.24.24,0,0,1,0-.17.88.88,0,0,0-.36-.9,20.77,20.77,0,0,1-1.54-1.41,1.14,1.14,0,0,0-1.52-.29h-.12c-.11-.21-.24-.44-.37-.7-.32-.13-.34.19-.48.38a.72.72,0,0,1-.4.32c-.11,0-.3-.14-.38-.27a1,1,0,0,0-1.21-.49,9.62,9.62,0,0,0-1.44.71c-.44.26-.75.67-1.4.32-.34-.19-.69-.3-.88-.66a.82.82,0,0,0-.72-.44,3.72,3.72,0,0,0-3.25,1c.31.28.15.5-.13.75-.59.54-1.17,1.09-1.75,1.64-.16.16-.25.13-.39,0S49.11,28,49,28c-.41.25-.8.54-1.19.82a2.16,2.16,0,0,1,.13.28,2.32,2.32,0,0,1-1.46.24c-.88,0-.87,0-1.14-.85,0-.1-.24-.24-.31-.22a1,1,0,0,0-.56.34,1.53,1.53,0,0,0-.21.83c0,.42-.2.56-.54.65-.76.2-.75.2-.53,1-.37-.06-.71-.09-1-.17-.72-.17-.72-.18-1.09.48l-.14.21c-.1.17-.17.31,0,.47s.17.28.27.47l-.56,0c-.07.34-.16.68-.21,1,0,.09.05.2.08.3l.29-.11.64-.34.15.11-.21,1c-.67-.19-.67-.19-.89.2a3.65,3.65,0,0,0,2.09.65c-.29.72-.88.35-1.28.47,0,.81.75,1.1,1.16,1.52-.15.34-.28.63-.42.93l.09.05-.63.08c.17.18.28.29.41.44l-.39,0c-.12.27-.22.51-.34.8l.73.15c-.07.16-.14.29-.2.42.59.35.8.32,1.24-.28l1.58.77a.23.23,0,0,1,.11.13.67.67,0,0,1-.55.78,8.17,8.17,0,0,1-.84-.14.35.35,0,0,0-.25,0A.83.83,0,0,0,43.17,43a4.32,4.32,0,0,1,.45.5,4.35,4.35,0,0,1-.58.27c-.57.18-.55.31-.25.78a.8.8,0,0,0,.34.29c.34.15.71.26,1,.41.15.07.41.21.4.3,0,.45.3.55.55.76a3.63,3.63,0,0,0,.47.41c.29.16.62.26.93.4a11.59,11.59,0,0,0,1.64.68A15.6,15.6,0,0,0,50.1,48c.12,0,.3.08.32.17a4.27,4.27,0,0,1,.19.93c0,.19,0,.31-.29.26a5.58,5.58,0,0,0-.91-.07c-.62,0-.77-.12-.88-.75l-.71-.11c0,.32.08.57.13.88-.39-.1-.72-.17-1-.28a2.25,2.25,0,0,1-.46-.32c-.08-.06-.23-.18-.26-.16a1,1,0,0,0-.25.34s.14.12.22.19l.16.15c-.17.25-.34.49-.49.73-.29.44-.39.46-.85.27a.47.47,0,0,0-.42,0c-.09.06-.11.27-.09.39.06.35.2.69.23,1,0,.78.36,1.65-.6,2.15.47.38.61.4,1,.15l.56.5c-.31.63-1.27.61-1.31,1.43l-1-.37c-.11,0-.31,0-.34,0A.58.58,0,0,0,43,56a9.07,9.07,0,0,0,.32.92.28.28,0,0,0,.23.09,8.35,8.35,0,0,0,1.3-.56c.55-.33,1-.73,1.61-1.15,0,.18,0,.24.05.29.09.39.16.42.52.25a1.59,1.59,0,0,1,.54-.13,4.52,4.52,0,0,1,1.88.64l-.16.78c0,.1,0,.28,0,.3-.35.1-.27.32-.21.57a.63.63,0,0,1-.07.37c-.1.24-.22.46-.33.7.3.37.29.58,0,1a1.13,1.13,0,0,0-.3.51c-.05.38-.23.55-.62.5a3.19,3.19,0,0,1-1,1.94c-.43.42-.43.42-.23,1,0,0,0,0,0,.07a2.25,2.25,0,0,0-.3.39.4.4,0,0,1-.22.17,3.91,3.91,0,0,1-.56-.08,1,1,0,0,0-.12.42A4.66,4.66,0,0,0,45.43,66a1.38,1.38,0,0,1-.4,1.69c-.38.33-.37.64-.09,1.06a1.51,1.51,0,0,0,.39.3c-.08.64.5.88.72,1.33l.28-.17c.08,0,.17-.06.27-.1a2.66,2.66,0,0,1,.11.28.45.45,0,0,0,.77.3.8.8,0,0,1,1.09.08,1.66,1.66,0,0,1,.48,1.3.68.68,0,0,0,.51.78,1,1,0,0,1,.75,1l.71-.19a4.24,4.24,0,0,0,1.83,2.14c.12-.2.22-.35.31-.49l.36.62c.12.2.34.42.32.61s-.31.31-.5.4l-.08,0h0c-.16,0-.36.27-.36.27-.41.49-.77,1-1.57.76a5.16,5.16,0,0,1-1.2-.14c-1-.43-2-.83-3-1.25a1,1,0,0,0,0,1c.55,1,1.1,2,1.72,2.9.35.53.6,1.2,1.32,1.39,0,0,0,0,0,0,.39.44.79.87,1.17,1.32a.94.94,0,0,1,.24.49,7.73,7.73,0,0,1-.2,1.81,1,1,0,0,0,.19,1.06.35.35,0,0,1-.05.55c-.63-.16-.63-.16-1.17.23-.16.12-.34.23-.56.38v-1l-.64-.49c-.33.34-.67.64-1.13.19,0,0-.11,0-.16,0l-.67.19v1.54h-.46a4.41,4.41,0,0,1,0,.8.51.51,0,0,0,.31.57l2.13,1.09A2.79,2.79,0,0,1,51,92.36c.1.34.3.68.72.7s.5.26.49.6c0,.12,0,.24,0,.36,0,.62,0,.64.63.84.12,0,.26,0,.37.1s.35.11.38.21c.1.29.25.43.57.34-.2.51-.1.65.45.69.08,0,.19,0,.22.08a1.25,1.25,0,0,0,1.11.49.43.43,0,0,1,.32.19c.17.31.31.64.47,1l.33-.11c.1.2.2.39.31.62.18-.27.4-.42.64-.26a.92.92,0,0,0,1.2,0,2.75,2.75,0,0,1,.35-.18,3.2,3.2,0,0,0,1.49,2.4,8.73,8.73,0,0,1,.75.74c.27.3.42.33.6,0s.33-.21.47,0a2.57,2.57,0,0,0,1.12.8c.58.24,1.15.49,1.73.71A.35.35,0,0,1,66,103c0,.41,0,.82,0,1.24a.3.3,0,0,1-.17.23,2.37,2.37,0,0,1-.52,0c-.07,0-.2,0-.23,0-.19.27-.62.38-.53.84,0,.16,0,.33,0,.5a.31.31,0,0,1-.28.37,3.67,3.67,0,0,0-.6.29.5.5,0,0,1-.7-.17l-.19-.33-.2.31c-.18-.08-.36-.17-.55-.24a3.74,3.74,0,0,0-.57-.17.9.9,0,0,0-1.06.48,1.34,1.34,0,0,0,.44,1.5l.59.38c.53.36.54.69.06,1.09a.67.67,0,0,0-.17.36c0,.11.05.24,0,.35a1.53,1.53,0,0,0,1,1.69A4.22,4.22,0,0,1,64,114.07c-.17.14-.53.26-.25.44a1.11,1.11,0,0,1,.48,1.25.41.41,0,0,0,.52.52c.38-.07.79-.27,1.12-.17s.59.49.89.73a3.5,3.5,0,0,0,.54.29,2.91,2.91,0,0,1,.73.35,6.22,6.22,0,0,1,1.49,2.69,2.24,2.24,0,0,1,.17,1.2.92.92,0,0,0,.34,1.07,1.59,1.59,0,0,1,.52.94c.07.5.1,1,.12,1.52,0,.09-.11.22-.21.28a.71.71,0,0,0-.33,1c.08.16.17.31.26.46s.43.32.61,0a.32.32,0,0,1,.43-.16,2.56,2.56,0,0,0,.48.1c.54.09.79-.07.93-.58a2.62,2.62,0,0,0,.09-.56c.08-1,.12-2,.22-3a1.09,1.09,0,0,1,1.1-1c.23,0,.44,0,.67-.07a.73.73,0,0,0,.65-.47c0-.12.11-.28.2-.32.42-.16.86-.26,1.28-.41a3.06,3.06,0,0,0,.69-.37c.41-.29.78-.63,1.2-.91a.87.87,0,0,1,1,.28,4.72,4.72,0,0,1,.79,1.79c0,.18.12.24.32.3.52.15.94-.22,1.47-.15,0-.14,0-.26,0-.34a1.1,1.1,0,0,1,0-.89c.09-.32.15-.64.23-1a.28.28,0,0,1,.15-.15,1.16,1.16,0,0,0,.74-1l.77.27a.23.23,0,0,0,.18,0,.17.17,0,0,0,0-.16c-.17-.36,0-.72.37-.74a1.91,1.91,0,0,1,.84.19c.11,0,.13.31.2.51a2.42,2.42,0,0,0,.35-.12,1.57,1.57,0,0,1,1.58,0,3.18,3.18,0,0,0,.73.26c.25,0,.56.06.65-.21s.29-.26.52-.24.28,0,.35,0c.43-.45.85-.91,1.34-1.44l.75.35c.12,0,.29.16.37.12a.83.83,0,0,0,.31-.38,1.55,1.55,0,0,0,0-.44c.16,0,.35-.14.44-.08a4,4,0,0,1,.88.71.5.5,0,0,0,.55.18c.44-.08.89-.13,1.33-.2a4.57,4.57,0,0,0,1-.23,3.77,3.77,0,0,0,1.7-1.1c0-.06.17-.06.3-.1a1.62,1.62,0,0,0,0,.44,1.66,1.66,0,0,0,1.25.85,13.27,13.27,0,0,0,1.39-.31c.07,0,.15-.13.18-.22.12-.41.22-.83.32-1.24h.6l.46-1.44c.1-.32.23-.66,0-1-.51-.6-1-1.18-1.66-1.86a11.1,11.1,0,0,1,1-3.76c-.12-.07-.23-.1-.29-.18a3.55,3.55,0,0,1-.74-1.61c0-.06.06-.18.12-.21.56-.26,1.18-.45,1.31-1.23l.89.4s0-.07,0-.11-.16-.42.16-.54a.67.67,0,0,1,.63,0,4.07,4.07,0,0,0,.67.31.64.64,0,0,0,.36,0c.32-.08.62-.18,1-.28l.49-.73c.11-.56.19-1,.28-1.44a.41.41,0,0,1,.15-.14,17.42,17.42,0,0,0,3-2.81.81.81,0,0,0,.15-.37,11.06,11.06,0,0,1,.26-1.14c.14-.4.08-.61-.34-.74"/></g></g></svg>