<svg xmlns="http://www.w3.org/2000/svg" viewBox="0 0 150.78 150.78"><defs><style>.cls-1{fill:#00787f;}.cls-2{fill:#fff;fill-rule:evenodd;}</style></defs><title>sidebar_katalog_metapodataka</title><g id="Layer_2" data-name="Layer 2"><g id="Layer_1-2" data-name="Layer 1"><circle class="cls-1" cx="75.39" cy="75.39" r="75.39"/><path class="cls-2" d="M87.53,82.5c2.51,3.15,5.68,5.65,8.33,8.67,4.09-3.44,7.89,2.49,10.46,5.06,5.81,5.81,11.09,10.93,17,16.84,1,1,3.08,2.8,3.11,3.6,0,1.37-4,4.46-4.74,5.23s-1.69,1.85-2.45,2.61-1.56,1.95-2.95,2c-1.73-.07-2.84-1.7-3.92-2.77-5.47-5.47-10.73-10.9-16.51-16.68-2.44-2.44-8.39-6-5.23-10.46-2.74-3-5.76-5.68-8.5-8.66C76.73,91.84,71,95,62.84,95.58a35.06,35.06,0,0,1-26.64-9A34.46,34.46,0,0,1,24.43,62.72a35,35,0,0,1,9.15-26.48C40,29.42,47,25.81,58.1,24.47c7.78-.93,15.38,2.15,20.6,5.4,9.93,6.19,18.75,18.05,16.67,34.65A35.15,35.15,0,0,1,87.53,82.5ZM42.24,38.37c-4.43,3.69-7.07,7.23-8.82,12.26a28.19,28.19,0,0,0,8.17,30.56c7.63,6.55,20.66,9.73,31.88,3.6,8-4.36,15.65-13.28,14.55-27.46a28.23,28.23,0,0,0-9.49-18.47,27.94,27.94,0,0,0-21.25-6.7A26,26,0,0,0,42.24,38.37Z"/></g></g></svg>