<svg xmlns="http://www.w3.org/2000/svg" viewBox="0 0 170.46 170.47"><defs><style>.cls-1{fill:#fff;fill-rule:evenodd;}</style></defs><title>video_uputstvo</title><g id="Layer_2" data-name="Layer 2"><g id="Layer_1-2" data-name="Layer 1"><path class="cls-1" d="M81.24,0h8c25,2.33,43.52,11.43,57.26,26,13.14,13.89,24,33.52,24,59.26s-10.84,45.38-24,59.27c-13.74,14.53-32.32,23.64-57.26,26h-8C33.49,164.81,5.73,137.25,0,89.23v-8C1.13,57.7,12.34,37.93,25.3,25,39,11.24,57.47,1.69,81.24,0ZM29.3,35.62A73,73,0,0,0,11,91.23c1.79,22,11,38,24.3,49.94a75,75,0,0,0,55.6,18.31c22.25-1.74,37.92-11,49.94-24.31,11.47-12.69,20.8-30.94,19-55.6a74.7,74.7,0,0,0-24.3-49.94C123.32,18.48,103.22,9.14,79.57,11,56.86,12.76,40.46,23,29.3,35.62Z"/><path class="cls-1" d="M63.92,126.7c21.17-13.89,42.47-27.65,63-42.2C105.6,71,85.23,56.49,63.92,43Z"/></g></g></svg>