<svg xmlns="http://www.w3.org/2000/svg" viewBox="0 0 270 65.91"><defs><style>.cls-1{fill:#fff;}.cls-1,.cls-3,.cls-5{fill-rule:evenodd;}.cls-2,.cls-3{fill:#a5a7aa;}.cls-4,.cls-5{fill:#eb1c24;}.cls-6{fill:none;stroke:#eb1c24;stroke-miterlimit:2.61;stroke-width:0.21px;}.cls-7{fill:#2e3190;}.cls-8{fill:#231f20;}</style></defs><title>geoSrbija_logo</title><g id="Layer_2" data-name="Layer 2"><g id="Layer_1-2" data-name="Layer 1"><path class="cls-1" d="M50.71.08c-.1,0,8.23,27.55,11.56,46.12.51,2.84,20.67,10.32,20.39,12-.39,2.35-20.69,6.12-20.72,6.12C39.65,63.52.65,48.7,1.6,25.49,2.05,14.34,13.07-1.26,50.71.08"/><path class="cls-2" d="M109.41,46.86c-9.34,12.38-38.15,19.4-48.13,19-13.46-.51-27.25-4.85-39-11.24C9.39,47.71-.44,37.77,0,25.51H0v-.09A19.56,19.56,0,0,1,1,20.18,20.65,20.65,0,0,1,3.54,15C9.32,6.44,24.55,0,50.71.08c-2.82.72-34-1.72-46.24,16.33C-4.42,29.51,14,46.59,23.73,51.88c11.73,6.35,29.86,8,40.68,8.69,19.25-1.28,34.6-4.75,45-13.71"/><polygon class="cls-3" points="50.83 5.31 50.82 1.66 59.5 1.58 59.54 4.4 65.2 4.4 65.2 12.16 72.73 12.16 72.76 21.76 85.16 21.76 85.2 30.1 81.58 30.21 81.58 39.32 88.85 39.31 88.85 48.66 82.62 48.66 82.66 58.23 65.73 58.24 65.73 64.31 61.94 64.35 61.93 57.16 56.61 57.18 56.61 50.64 60.54 50.62 60.54 45.77 49.01 45.77 48.96 38.53 50.87 38.53 50.83 30.1 47.89 30.1 47.89 24.59 50.53 24.63 50.53 20.37 48.52 20.37 48.55 14.13 45.05 14.13 45.05 5.31 50.83 5.31"/><rect class="cls-4" x="13.77" y="40.2" width="10.81" height="0.79"/><rect class="cls-4" x="13.77" y="7.76" width="10.81" height="0.79"/><path class="cls-4" d="M35.4,41H24.19V29.39H35.8V41ZM25,40.2H35v-10H25Z"/><path class="cls-4" d="M35.4,19.37H24.19V7.76H35.8V19.37ZM25,18.57H35v-10H25Z"/><path class="cls-4" d="M46.21,51.81H35V40.2H46.61V51.81ZM35.8,51h10V41h-10Z"/><path class="cls-4" d="M46.21,41H35V29.39H46.61V41ZM35.8,40.2h10v-10h-10Z"/><path class="cls-4" d="M46.21,30.18H35V18.57H46.61V30.18ZM35.8,29.39h10v-10h-10Z"/><path class="cls-4" d="M57,62.62H45.82V51h11.6v11.6Zm-10.42-.79h10v-10h-10Z"/><path class="cls-4" d="M57,51.81H45.82V40.2h11.6V51.81ZM46.61,51h10V41h-10Z"/><path class="cls-4" d="M57,41H45.82V29.39h11.6V41ZM46.61,40.2h10v-10h-10Z"/><path class="cls-4" d="M67.84,62.62H56.63V51H68.24v11.6Zm-10.42-.79h10v-10h-10Z"/><polygon class="cls-4" points="57.03 29.39 67.44 29.39 67.44 18.97 68.24 18.97 68.24 29.78 68.24 30.18 67.84 30.18 57.03 30.18 57.03 29.39"/><rect class="cls-4" x="67.84" y="51.02" width="10.81" height="0.79"/><path class="cls-5" d="M67.84,16.89A2.08,2.08,0,1,1,65.76,19,2.08,2.08,0,0,1,67.84,16.89Z"/><path class="cls-6" d="M67.84,16.89A2.08,2.08,0,1,1,65.76,19,2.08,2.08,0,0,1,67.84,16.89Z"/><path class="cls-5" d="M67.84,27.7a2.08,2.08,0,1,1-2.08,2.08A2.08,2.08,0,0,1,67.84,27.7Z"/><path class="cls-6" d="M67.84,27.7a2.08,2.08,0,1,1-2.08,2.08A2.08,2.08,0,0,1,67.84,27.7Z"/><path class="cls-5" d="M57,27.7A2.08,2.08,0,1,1,55,29.78,2.08,2.08,0,0,1,57,27.7Z"/><path class="cls-6" d="M57,27.7A2.08,2.08,0,1,1,55,29.78,2.08,2.08,0,0,1,57,27.7Z"/><path class="cls-5" d="M57,38.52A2.08,2.08,0,1,1,55,40.6,2.08,2.08,0,0,1,57,38.52Z"/><path class="cls-6" d="M57,38.52A2.08,2.08,0,1,1,55,40.6,2.08,2.08,0,0,1,57,38.52Z"/><path class="cls-5" d="M46.21,38.52a2.08,2.08,0,1,1-2.08,2.08A2.08,2.08,0,0,1,46.21,38.52Z"/><path class="cls-6" d="M46.21,38.52a2.08,2.08,0,1,1-2.08,2.08A2.08,2.08,0,0,1,46.21,38.52Z"/><path class="cls-5" d="M46.21,16.89A2.08,2.08,0,1,1,44.13,19,2.08,2.08,0,0,1,46.21,16.89Z"/><path class="cls-6" d="M46.21,16.89A2.08,2.08,0,1,1,44.13,19,2.08,2.08,0,0,1,46.21,16.89Z"/><path class="cls-5" d="M35.4,16.89A2.08,2.08,0,1,1,33.32,19,2.08,2.08,0,0,1,35.4,16.89Z"/><path class="cls-6" d="M35.4,16.89A2.08,2.08,0,1,1,33.32,19,2.08,2.08,0,0,1,35.4,16.89Z"/><path class="cls-5" d="M78.66,49.33a2.08,2.08,0,1,1-2.08,2.08A2.08,2.08,0,0,1,78.66,49.33Z"/><path class="cls-6" d="M78.66,49.33a2.08,2.08,0,1,1-2.08,2.08A2.08,2.08,0,0,1,78.66,49.33Z"/><path class="cls-5" d="M67.84,49.33a2.08,2.08,0,1,1-2.08,2.08A2.08,2.08,0,0,1,67.84,49.33Z"/><path class="cls-6" d="M67.84,49.33a2.08,2.08,0,1,1-2.08,2.08A2.08,2.08,0,0,1,67.84,49.33Z"/><path class="cls-5" d="M57,49.33A2.08,2.08,0,1,1,55,51.41,2.08,2.08,0,0,1,57,49.33Z"/><path class="cls-6" d="M57,49.33A2.08,2.08,0,1,1,55,51.41,2.08,2.08,0,0,1,57,49.33Z"/><path class="cls-5" d="M57,60.15A2.08,2.08,0,1,1,55,62.23,2.08,2.08,0,0,1,57,60.15Z"/><path class="cls-6" d="M57,60.15A2.08,2.08,0,1,1,55,62.23,2.08,2.08,0,0,1,57,60.15Z"/><path class="cls-5" d="M67.84,60.15a2.08,2.08,0,1,1-2.08,2.08A2.08,2.08,0,0,1,67.84,60.15Z"/><path class="cls-6" d="M67.84,60.15a2.08,2.08,0,1,1-2.08,2.08A2.08,2.08,0,0,1,67.84,60.15Z"/><path class="cls-5" d="M46.21,60.15a2.08,2.08,0,1,1-2.08,2.08A2.08,2.08,0,0,1,46.21,60.15Z"/><path class="cls-6" d="M46.21,60.15a2.08,2.08,0,1,1-2.08,2.08A2.08,2.08,0,0,1,46.21,60.15Z"/><path class="cls-5" d="M24.59,27.29a2.08,2.08,0,1,1-2.08,2.08A2.08,2.08,0,0,1,24.59,27.29Z"/><path class="cls-6" d="M24.59,27.29a2.08,2.08,0,1,1-2.08,2.08A2.08,2.08,0,0,1,24.59,27.29Z"/><path class="cls-5" d="M13.77,6.08a2.08,2.08,0,1,1-2.08,2.08A2.08,2.08,0,0,1,13.77,6.08Z"/><path class="cls-6" d="M13.77,6.08a2.08,2.08,0,1,1-2.08,2.08A2.08,2.08,0,0,1,13.77,6.08Z"/><path class="cls-5" d="M35.4,6.08a2.08,2.08,0,1,1-2.08,2.08A2.08,2.08,0,0,1,35.4,6.08Z"/><path class="cls-6" d="M35.4,6.08a2.08,2.08,0,1,1-2.08,2.08A2.08,2.08,0,0,1,35.4,6.08Z"/><path class="cls-5" d="M24.59,6.08a2.08,2.08,0,1,1-2.08,2.08A2.08,2.08,0,0,1,24.59,6.08Z"/><path class="cls-6" d="M24.59,6.08a2.08,2.08,0,1,1-2.08,2.08A2.08,2.08,0,0,1,24.59,6.08Z"/><path class="cls-5" d="M24.59,16.89A2.08,2.08,0,1,1,22.51,19,2.08,2.08,0,0,1,24.59,16.89Z"/><path class="cls-6" d="M24.59,16.89A2.08,2.08,0,1,1,22.51,19,2.08,2.08,0,0,1,24.59,16.89Z"/><path class="cls-5" d="M35.4,27.7a2.08,2.08,0,1,1-2.08,2.08A2.08,2.08,0,0,1,35.4,27.7Z"/><path class="cls-6" d="M35.4,27.7a2.08,2.08,0,1,1-2.08,2.08A2.08,2.08,0,0,1,35.4,27.7Z"/><path class="cls-5" d="M35.4,49.33a2.08,2.08,0,1,1-2.08,2.08A2.08,2.08,0,0,1,35.4,49.33Z"/><path class="cls-6" d="M35.4,49.33a2.08,2.08,0,1,1-2.08,2.08A2.08,2.08,0,0,1,35.4,49.33Z"/><path class="cls-5" d="M13.77,38.52a2.08,2.08,0,1,1-2.08,2.08A2.08,2.08,0,0,1,13.77,38.52Z"/><path class="cls-6" d="M13.77,38.52a2.08,2.08,0,1,1-2.08,2.08A2.08,2.08,0,0,1,13.77,38.52Z"/><path class="cls-5" d="M24.59,38.52a2.08,2.08,0,1,1-2.08,2.08A2.08,2.08,0,0,1,24.59,38.52Z"/><path class="cls-6" d="M24.59,38.52a2.08,2.08,0,1,1-2.08,2.08A2.08,2.08,0,0,1,24.59,38.52Z"/><rect class="cls-7" x="82.94" y="30.72" width="8.38" height="7.66"/><rect class="cls-7" x="86.32" y="21.79" width="6.71" height="6.14"/><rect class="cls-7" x="92.83" y="33.28" width="3.36" height="3.07"/><rect class="cls-7" x="84.63" y="14.95" width="5.31" height="4.85"/><rect class="cls-7" x="66.76" y="3.91" width="3.36" height="3.07"/><rect class="cls-7" x="74.13" y="11.49" width="8.38" height="7.66"/><rect class="cls-7" x="73.07" y="5.65" width="4.67" height="4.27"/><rect class="cls-7" x="91.98" y="38.8" width="5.67" height="5.19"/><rect class="cls-7" x="93.93" y="19.36" width="3.36" height="3.07"/><path class="cls-8" d="M263,43.21,258.6,30.94l-4.4,12.27ZM270,53h-3.54l-2.44-7H253.18l-2.44,7h-3.38l9.1-25h4.44Z"/><path class="cls-8" d="M242.78,46.54a6.42,6.42,0,0,1-2,5.07,7.86,7.86,0,0,1-5.38,1.78c-.54,0-1.26,0-2.15-.14A22.62,22.62,0,0,1,231,52.9V49.8h.18c.46.15,1,.32,1.7.48a8.38,8.38,0,0,0,2.07.25,7.07,7.07,0,0,0,2.45-.35,2.87,2.87,0,0,0,1.36-1,3.9,3.9,0,0,0,.58-1.65,18.63,18.63,0,0,0,.12-2.25V30.69h-5.29V28h8.62Z"/><polygon class="cls-8" points="206.67 53.03 210.79 53.03 222.64 30.67 222.64 53.03 225.75 53.03 225.75 28.03 220.59 28.03 209.78 48.45 209.78 28.03 206.67 28.03 206.67 53.03"/><path class="cls-8" d="M172.84,35.67a5.11,5.11,0,0,0-.46-2.25A3.75,3.75,0,0,0,171,31.86a5.47,5.47,0,0,0-1.84-.74,11.9,11.9,0,0,0-2.61-.23h-3.29v10h2.8a12.3,12.3,0,0,0,3.28-.36,4.65,4.65,0,0,0,2-1.16,4.75,4.75,0,0,0,1.12-1.69,5.71,5.71,0,0,0,.33-2m3.46-.08a8.2,8.2,0,0,1-.58,3.08,7.42,7.42,0,0,1-1.62,2.46A8.29,8.29,0,0,1,171,43.07a13.1,13.1,0,0,1-4.45.64h-3.32V53H160V28h6.78a16.53,16.53,0,0,1,3.81.38,8.75,8.75,0,0,1,2.77,1.18A6.73,6.73,0,0,1,175.52,32,7.45,7.45,0,0,1,176.3,35.59Z"/><path class="cls-8" d="M154,51.22l-1.67.75a16,16,0,0,1-2,.74,20,20,0,0,1-2.22.55,14.45,14.45,0,0,1-2.65.23,15.1,15.1,0,0,1-4.94-.77,9.93,9.93,0,0,1-3.87-2.39,10.74,10.74,0,0,1-2.52-4,16.39,16.39,0,0,1-.91-5.72,16.31,16.31,0,0,1,.87-5.52,11.21,11.21,0,0,1,2.52-4.12,10.71,10.71,0,0,1,3.86-2.49,14.23,14.23,0,0,1,5-.85,16.75,16.75,0,0,1,4,.49A21.12,21.12,0,0,1,154,29.78v3.94h-.25a14.68,14.68,0,0,0-4.1-2.51,11.87,11.87,0,0,0-4.35-.79,9,9,0,0,0-3.41.61,7.39,7.39,0,0,0-2.71,1.9,8.76,8.76,0,0,0-1.81,3.19,13.93,13.93,0,0,0-.65,4.44,13,13,0,0,0,.71,4.53,9.09,9.09,0,0,0,1.84,3.09A7.44,7.44,0,0,0,142.06,50a9.44,9.44,0,0,0,3.32.6,12.2,12.2,0,0,0,4.5-.83,12.93,12.93,0,0,0,3.92-2.46H154Z"/><path class="cls-8" d="M197.29,45.26a5.11,5.11,0,0,1-.46,2.25,3.81,3.81,0,0,1-1.37,1.56,5.56,5.56,0,0,1-1.84.74,47.63,47.63,0,0,1-5,.41H185.3l.09-9.23h2.81a42.14,42.14,0,0,1,5.7.19,4.58,4.58,0,0,1,2,1.15A4.75,4.75,0,0,1,197.06,44a2.3,2.3,0,0,1,.23,1.24m3.46.08a4.7,4.7,0,0,0-.48-2.32,7.47,7.47,0,0,0-1.62-2.46,8.26,8.26,0,0,0-3.06-1.93c-1.17-.43-5.08-.47-6.87-.47h-3.33l-.07-7.26,10.8,0-.06-2.88-10.76,0H182v25h6.78a45.12,45.12,0,0,0,6.24-.55,8.88,8.88,0,0,0,2.77-1.18A6.72,6.72,0,0,0,200,49,7.45,7.45,0,0,0,200.75,45.34Z"/><path class="cls-8" d="M159.07,21.71a4.18,4.18,0,0,0,1-1.58l.17-.52a3.14,3.14,0,0,0,.14-.86l.07-.91a7.16,7.16,0,0,0-.2-1.76,4.35,4.35,0,0,0-.69-1.44,3.47,3.47,0,0,0-1.11-1,3.14,3.14,0,0,0-1.53-.36,3.08,3.08,0,0,0-2.69,1.38,5.66,5.66,0,0,0-.86,3.2v.91a2.43,2.43,0,0,0,.08.61,7,7,0,0,0,.26.77,4.36,4.36,0,0,0,1,1.55,2.68,2.68,0,0,0,.91.58,3.39,3.39,0,0,0,1.24.21,3,3,0,0,0,2.14-.76m-9.76,2.47a8.81,8.81,0,0,1-2.49-6.36,8.85,8.85,0,0,1,2.47-6.28q2.47-2.61,7.47-2.61h.36q5,0,7.47,2.59a8.83,8.83,0,0,1,2.47,6.32,8.92,8.92,0,0,1-2.46,6.32c-1.64,1.74-4.14,2.61-7.48,2.61h-.36Q151.82,26.77,149.31,24.18Zm-11.74-8.27a3.37,3.37,0,0,0-.21-1.18,4.18,4.18,0,0,0-.65-1.09,2.59,2.59,0,0,0-1-.81,3.21,3.21,0,0,0-1.4-.29,2.91,2.91,0,0,0-2.27,1.05,4.27,4.27,0,0,0-.67,1.07,3.21,3.21,0,0,0-.25,1.25Zm4.07,8.38A8.78,8.78,0,0,1,139.12,26a11.26,11.26,0,0,1-1.4.46,4.48,4.48,0,0,1-1.19.16l-1.91.17h-.36a10.08,10.08,0,0,1-6.49-2.26,7,7,0,0,1-2-2.78,10,10,0,0,1-.69-3.91,9,9,0,0,1,2.38-6.32,8.75,8.75,0,0,1,6.78-2.57h.35a11.88,11.88,0,0,1,3.51.47,6.34,6.34,0,0,1,2.5,1.46,10.1,10.1,0,0,1,1.62,2,9.46,9.46,0,0,1,1,2.24,6.39,6.39,0,0,1,.2.87c.07.36.14.77.19,1.24a14.11,14.11,0,0,1,.08,1.49v.47H131v.59a1,1,0,0,0,.07.42,4.22,4.22,0,0,0,1,2,2.52,2.52,0,0,0,1,.74,3.55,3.55,0,0,0,1.38.24,3.29,3.29,0,0,0,2-.59,2.52,2.52,0,0,0,1-1.47h6.11A7.44,7.44,0,0,1,141.64,24.29ZM110.81,9.55H122.7v4.33h-5.53V26.15h-6.36Z"/></g></g></svg>