<svg xmlns="http://www.w3.org/2000/svg" viewBox="0 0 170.46 170.46"><defs><style>.cls-1,.cls-2{fill:#fff;}.cls-1{fill-rule:evenodd;}</style></defs><title>kartografski_pregled</title><g id="Layer_2" data-name="Layer 2"><g id="Layer_1-2" data-name="Layer 1"><path class="cls-1" d="M81.24,0h8c25,2.33,43.52,11.43,57.26,26,13.14,13.89,24,33.52,24,59.26s-10.84,45.38-24,59.27c-13.74,14.53-32.32,23.64-57.26,26h-8C33.49,164.81,5.73,137.25,0,89.23v-8C1.13,57.7,12.34,37.93,25.3,25,39,11.24,57.47,1.69,81.24,0ZM29.3,35.62A73,73,0,0,0,11,91.23c1.79,22,11,38,24.3,49.94a75,75,0,0,0,55.6,18.31c22.25-1.74,37.92-11,49.94-24.31,11.47-12.69,20.8-30.94,19-55.6a74.7,74.7,0,0,0-24.3-49.94C123.32,18.48,103.22,9.14,79.57,11,56.86,12.76,40.46,23,29.3,35.62Z"/><path class="cls-2" d="M117.76,103.58c-.26-.08-.53-.11-.77-.21a1.57,1.57,0,0,1-.55-.37c-.11-.11-.12-.3-.21-.44-.2-.3-.42-.59-.63-.89l-.63-.93a4.73,4.73,0,0,1-.52-.77c-.12-.26-.25-.31-.48-.19-.19-.65-.73-.35-1.12-.45-.13-.68-.23-.77-.94-.76-.2,0-.25-.1-.29-.24a.64.64,0,0,0-.64-.53.44.44,0,0,1-.29-.19,5.34,5.34,0,0,1-.76-3.08,1,1,0,0,0-.62-1.14c-.33-.15-.61-.33-.52-.78,0-.09-.05-.19-.07-.29-.06-.3-.12-.6-.18-.95l-.23-.19a1.12,1.12,0,0,1-.29-1.55,1.63,1.63,0,0,0,.18-.46q.21-1,.39-2.1c0-.29.08-.59.13-.93a2.19,2.19,0,0,1,.13-.38c.42-.06.85-.15,1.27-.2s.65-.3.52-.71l1.3-.29c0-.27,0-.47,0-.66,0-.51,0-1,.08-1.53a.71.71,0,0,1,.12-.38,3.16,3.16,0,0,0,.9-1.94c0-.28-.09-.43-.33-.5a8.62,8.62,0,0,0-1-.21,1.37,1.37,0,0,1-1.2-1c-.3-.83-.58-1.67-.91-2.49-.19-.49-.14-.6.39-.62h.27a.86.86,0,0,0,.83-.65c.07-.27.11-.56.17-.84.36,0,.73.06,1.09.12a.84.84,0,0,1,.49.24c.28.39.64.27,1,.17a.63.63,0,0,0,.3-1c-.1-.13-.2-.26-.29-.4a1.29,1.29,0,0,0-1.13-.6c-.29,0-.58,0-.86,0a.86.86,0,0,1-.47-.19c-.57-.52-1.12-1.07-1.69-1.59a.46.46,0,0,0-.4-.07,5.46,5.46,0,0,0-.78.35,3.34,3.34,0,0,0-1.79,1.37c-.46.9-1,1.77-1.48,2.65-.16.29-.31.55-.7.58a.68.68,0,0,1-.8-.39,1.71,1.71,0,0,0-.42-.51c-.24-.22-.6-.37-.72-.64a2.93,2.93,0,0,1,0-1c0-.32-.37-.58-.62-.48a1.07,1.07,0,0,1-.25,0l.06-.25a.91.91,0,0,0-.17-.09,4.72,4.72,0,0,0-1.87-.18.67.67,0,0,1-.49-.17.83.83,0,0,0-.82-.22c-.64.09-1.29.12-1.94.18-.25,0-.37-.1-.41-.34A9.48,9.48,0,0,1,95.82,70a.92.92,0,0,0-.65-.86,4.2,4.2,0,0,0-2.32-.26c-.28,0-.36-.07-.46-.28s-.28-.49-.41-.75a.82.82,0,0,1-.13-.41.8.8,0,0,1,.85-.72c.35,0,.69,0,1,0a2.16,2.16,0,0,0,1.33-.4c0-.18-.11-.35-.15-.52a.83.83,0,0,0-.54-.63,4.47,4.47,0,0,0-.87-.23,1,1,0,0,1-.74-.44c-.18-.27-.42-.51-.62-.76-.06-.08-.15-.16-.15-.25s.12-.13.19-.16L93.35,63c.07-.29.18-.59.23-.91a1.58,1.58,0,0,1,.87-1.31l.19-.1a7.55,7.55,0,0,0-.67-.78c-.36-.33-.77-.61-1.17-.91,0,0-.13,0-.2,0a2.7,2.7,0,0,1-.41-.07,13.31,13.31,0,0,0-2.1-.56.92.92,0,0,1-.87-.68.94.94,0,0,1,0-.16c-.07-.3-.13-.6-.2-1-.18.09-.37.12-.45.23a.71.71,0,0,1-1.3,0c-.13-.27-.26-.28-.48-.18s-.27,0-.38-.12c-.32-.4-.65-.81-1-1.19s-.55-.82-1.08-1c-.08,0-.11-.26-.16-.41s0-.16,0-.22A1.24,1.24,0,0,0,82.84,53c-.29,0-.3-.2-.33-.36a.43.43,0,0,1,.17-.3c.26-.23.55-.44.79-.63l-.62-1.15c-.29.12-.35.08-.36-.27a1.31,1.31,0,0,1,.33-.91.92.92,0,0,0,.1-1.13.86.86,0,0,1,0-.55c.09-.46.23-.9.34-1.36a.3.3,0,0,0-.08-.23,2.26,2.26,0,0,0-.46-.15c0,.25-.08.48-.12.71H81.27a1,1,0,0,0-.47-1,.33.33,0,0,1-.17-.49c.09-.17.05-.29-.14-.39a2.16,2.16,0,0,1-1-1.1,6.37,6.37,0,0,1-.21-.66c-.22.13-.42.22-.6.34s-.25.1-.32-.06-.22-.6-.33-.89a1,1,0,0,0-.2-.36.74.74,0,0,0-.8-.17.61.61,0,0,1-.68-.22l-.49-.53a.14.14,0,0,1,0-.12.78.78,0,0,0-.26-.81.18.18,0,0,1,0-.16.86.86,0,0,0-.34-.85c-.48-.45-1-.83-1.44-1.31a1.06,1.06,0,0,0-1.43-.28s0,0-.12,0c-.1-.19-.22-.41-.34-.66-.3-.12-.32.19-.45.36a.72.72,0,0,1-.38.3c-.11,0-.28-.13-.36-.25A.87.87,0,0,0,69.49,37a8.53,8.53,0,0,0-1.36.66c-.41.24-.71.64-1.31.31-.32-.18-.65-.29-.83-.63a.77.77,0,0,0-.67-.41,3.55,3.55,0,0,0-3.06,1c.3.27.14.48-.12.71-.56.51-1.1,1-1.64,1.55-.15.14-.24.11-.37,0s-.28-.18-.35-.13c-.39.23-.75.5-1.11.76,0,.11.09.19.12.27a2.14,2.14,0,0,1-1.37.23c-.83,0-.82,0-1.08-.8,0-.1-.21-.23-.28-.21a1,1,0,0,0-.54.32,1.5,1.5,0,0,0-.19.78c0,.39-.19.52-.51.61-.7.19-.7.19-.5.91-.34,0-.66-.08-1-.15-.68-.16-.68-.17-1,.45l-.12.19c-.1.16-.16.3,0,.45s.16.26.26.44l-.53,0c-.07.33-.15.64-.2,1,0,.08,0,.18.08.28l.27-.11.61-.31.13.1c-.07.31-.13.63-.2,1-.62-.18-.62-.18-.84.2a3.42,3.42,0,0,0,2,.6c-.27.68-.82.34-1.2.44,0,.77.7,1,1.09,1.44l-.4.87.09,0-.59.08c.16.17.26.27.38.41l-.37,0c-.11.25-.2.48-.32.75l.69.14-.19.39c.56.34.76.31,1.17-.26l1.48.73a.22.22,0,0,1,.11.12.63.63,0,0,1-.53.73,7,7,0,0,1-.78-.13.34.34,0,0,0-.23,0,.79.79,0,0,0,.08,1.3,3.9,3.9,0,0,1,.42.48,5.29,5.29,0,0,1-.54.25c-.53.17-.51.29-.24.73a.84.84,0,0,0,.32.27c.32.14.66.24,1,.39.14.06.38.19.37.27-.05.43.29.53.52.72a2.22,2.22,0,0,0,.44.38c.28.15.58.26.87.38a10.34,10.34,0,0,0,1.55.64,15.41,15.41,0,0,0,1.81.2c.11,0,.28.08.31.16a6.37,6.37,0,0,1,.17.87c0,.18,0,.29-.27.25a4.91,4.91,0,0,0-.86-.07c-.58,0-.72-.11-.82-.7l-.68-.1c0,.29.09.53.13.82a9.08,9.08,0,0,1-1-.27,1.91,1.91,0,0,1-.43-.29c-.08-.06-.22-.17-.24-.15a.82.82,0,0,0-.23.32s.13.11.2.17l.15.14c-.16.24-.32.47-.46.69-.28.42-.37.44-.8.25a.5.5,0,0,0-.4,0,.45.45,0,0,0-.08.37c0,.33.19.65.21,1,.06.73.35,1.54-.56,2,.45.36.58.38,1,.15l.52.47c-.29.58-1.19.57-1.22,1.34-.36-.13-.67-.25-1-.34-.1,0-.29,0-.32,0a.53.53,0,0,0-.06.39,5.48,5.48,0,0,0,.3.86.23.23,0,0,0,.21.09,10.21,10.21,0,0,0,1.22-.53c.51-.31,1-.69,1.52-1.08,0,.17,0,.22,0,.27.08.37.15.39.49.24a1.23,1.23,0,0,1,.5-.12,4.14,4.14,0,0,1,1.77.6c-.06.27-.11.5-.15.73s0,.26,0,.28c-.33.09-.25.3-.19.53a.63.63,0,0,1-.07.35l-.31.66c.29.34.28.55,0,.91a1.08,1.08,0,0,0-.28.48c0,.36-.22.51-.58.47a3,3,0,0,1-1,1.82c-.4.4-.41.39-.21.91,0,0,0,0,0,.06a2,2,0,0,0-.28.37c-.05.06-.13.15-.2.15a2.41,2.41,0,0,1-.53-.07.88.88,0,0,0-.11.39,4,4,0,0,0,.22,1A1.29,1.29,0,0,1,56,77.2a.66.66,0,0,0-.08,1,1.3,1.3,0,0,0,.36.28c-.06.61.48.83.68,1.25l.27-.16a1.2,1.2,0,0,1,.25-.09,2.49,2.49,0,0,1,.11.26.42.42,0,0,0,.72.28.76.76,0,0,1,1,.08,1.54,1.54,0,0,1,.45,1.21.64.64,0,0,0,.48.74A1,1,0,0,1,61,83l.67-.18a3.94,3.94,0,0,0,1.71,2c.12-.18.21-.33.29-.46L64,85c.11.19.32.4.3.57s-.29.3-.47.38l-.08,0h0c-.14,0-.33.25-.33.25-.38.47-.72.94-1.47.71a4.45,4.45,0,0,1-1.13-.13L58,85.61a1,1,0,0,0,0,1c.52.92,1,1.85,1.62,2.73.33.49.56,1.12,1.24,1.3,0,0,0,0,0,0,.37.41.74.82,1.1,1.24a.82.82,0,0,1,.22.46,7.38,7.38,0,0,1-.19,1.7,1,1,0,0,0,.18,1,.32.32,0,0,1,0,.52c-.59-.15-.59-.15-1.09.22l-.53.35v-1L60,94.67c-.32.33-.64.61-1.07.19a.16.16,0,0,0-.15,0l-.63.17v1.45h-.43a6.7,6.7,0,0,1,0,.76.48.48,0,0,0,.29.53l2,1a2.62,2.62,0,0,1,1.6,1.57c.09.31.28.64.67.65s.47.25.46.57c0,.11,0,.23,0,.34,0,.58,0,.6.59.79a3.58,3.58,0,0,1,.35.09c.13,0,.33.1.36.2.09.27.23.4.53.32-.19.48-.09.61.43.64.07,0,.17,0,.2.08a1.17,1.17,0,0,0,1,.46.39.39,0,0,1,.3.18c.17.29.3.6.45.91l.31-.1.29.58c.16-.26.37-.39.6-.24a.89.89,0,0,0,1.13,0,1.66,1.66,0,0,1,.33-.17,3,3,0,0,0,1.39,2.25,7.82,7.82,0,0,1,.71.7c.25.28.39.3.57,0s.3-.2.43,0a2.48,2.48,0,0,0,1.06.75c.54.22,1.08.46,1.62.67a.32.32,0,0,1,.23.35c0,.38,0,.77,0,1.16,0,.07-.09.21-.15.21a2,2,0,0,1-.49,0c-.08,0-.2,0-.22,0-.18.25-.58.36-.5.79,0,.15,0,.31,0,.47a.3.3,0,0,1-.26.35,2.41,2.41,0,0,0-.56.27.47.47,0,0,1-.66-.16c-.06-.09-.1-.18-.18-.31-.08.12-.13.21-.19.29l-.51-.23a5.52,5.52,0,0,0-.54-.16.84.84,0,0,0-1,.46,1.23,1.23,0,0,0,.41,1.4l.55.37c.5.33.51.64.06,1a.64.64,0,0,0-.16.34c0,.1,0,.22,0,.33a1.44,1.44,0,0,0,.89,1.58,4,4,0,0,1,1.54,2.31c-.16.13-.5.24-.23.42a1,1,0,0,1,.44,1.17c0,.34.15.55.49.49a2.93,2.93,0,0,1,1.06-.17c.31.09.54.46.83.69a3.15,3.15,0,0,0,.51.28,2.59,2.59,0,0,1,.69.33A5.7,5.7,0,0,1,79,126.47a2.07,2.07,0,0,1,.16,1.13.88.88,0,0,0,.32,1,1.38,1.38,0,0,1,.49.88,13.6,13.6,0,0,1,.12,1.42.39.39,0,0,1-.2.26.66.66,0,0,0-.31,1c.07.15.16.29.24.43s.4.3.57,0a.3.3,0,0,1,.41-.15,3.27,3.27,0,0,0,.45.1c.51.08.74-.07.87-.55a2.36,2.36,0,0,0,.09-.52c.07-.93.11-1.87.2-2.79a1,1,0,0,1,1-.93c.21,0,.42,0,.63-.06a.7.7,0,0,0,.61-.44c0-.11.09-.27.18-.3.4-.15.81-.25,1.21-.39a3.09,3.09,0,0,0,.65-.34c.38-.28.73-.6,1.12-.86a.8.8,0,0,1,1,.26,4.35,4.35,0,0,1,.74,1.69c0,.16.12.22.3.27.49.15.89-.2,1.38-.13,0-.14,0-.25,0-.33a1,1,0,0,1,0-.84c.08-.29.14-.59.21-.89a.31.31,0,0,1,.15-.15,1.1,1.1,0,0,0,.69-.93l.72.25a.2.2,0,0,0,.17,0s0-.1,0-.15c-.15-.34,0-.68.35-.69a1.78,1.78,0,0,1,.79.17c.11,0,.12.3.19.48a2.07,2.07,0,0,0,.33-.1,1.45,1.45,0,0,1,1.49,0,2.75,2.75,0,0,0,.68.24c.23.06.53.07.61-.19s.27-.25.49-.23.26,0,.32,0c.42-.41.81-.86,1.27-1.35l.7.33c.11,0,.27.15.35.11a.74.74,0,0,0,.29-.36,1.32,1.32,0,0,0,0-.41c.15,0,.33-.13.41-.07a3.59,3.59,0,0,1,.83.67.47.47,0,0,0,.51.16L104,123a4.58,4.58,0,0,0,1-.21,3.6,3.6,0,0,0,1.6-1c0-.06.16-.06.28-.09a1.79,1.79,0,0,0-.05.41,1.55,1.55,0,0,0,1.18.79c.44-.07.87-.17,1.3-.28.07,0,.14-.13.17-.21.11-.39.2-.78.3-1.17h.56c.15-.47.3-.91.44-1.35s.21-.62,0-.89c-.48-.57-1-1.12-1.56-1.75a10.51,10.51,0,0,1,1-3.53,1.37,1.37,0,0,1-.28-.17,3.37,3.37,0,0,1-.7-1.52.25.25,0,0,1,.12-.19c.53-.24,1.11-.42,1.23-1.16l.84.38a.44.44,0,0,0,0-.1c0-.18-.15-.4.14-.51a.67.67,0,0,1,.6,0,3.64,3.64,0,0,0,.63.3.56.56,0,0,0,.34,0c.29-.07.58-.16.89-.26l.47-.68c.09-.53.17-.94.26-1.35,0,0,.08-.1.13-.14a16.09,16.09,0,0,0,2.83-2.64.81.81,0,0,0,.15-.34,9.23,9.23,0,0,1,.23-1.07c.14-.38.08-.58-.31-.69m-51.37-17a1.41,1.41,0,0,1,.33.24,2.27,2.27,0,0,1-.25.16,2.5,2.5,0,0,1-.27-.29c.07,0,.15-.12.19-.11"/></g></g></svg>